<svg preserveAspectRatio="none" overflow="visible" style="display: block;" width="140" height="140" viewBox="0 0 140 140" fill="none" xmlns="http://www.w3.org/2000/svg">
<g id="Group 24" filter="url(#filter0_d_0_11)">
<circle id="Ellipse 12" cx="70" cy="55" r="40" fill="url(#paint0_linear_0_11)"/>
<g id="Union">
<path d="M68.8321 34.854C70.2298 34.854 71.5992 34.9754 72.9288 35.2076L72.3266 38.6588C71.1953 38.4612 70.0273 38.3577 68.8321 38.3577C58.2537 38.3577 49.854 46.4259 49.854 56.1679C49.854 65.9099 58.2537 73.9781 68.8321 73.9781C71.7166 73.9781 74.4443 73.3749 76.8847 72.2998C77.4945 72.0312 78.1238 72.0085 78.6177 72.0449C79.1283 72.0826 79.6485 72.1964 80.1323 72.3301C81.0871 72.5938 82.1591 73.0128 83.0839 73.3634C84.0701 73.7372 84.8998 74.0376 85.5583 74.18C85.6645 74.2029 85.7567 74.2179 85.8354 74.2296C85.8459 74.1156 85.8528 73.9739 85.8514 73.8013C85.8455 73.078 85.7138 72.1524 85.5378 71.0704C85.3717 70.0497 85.1634 68.8748 85.0764 67.8553C85.0323 67.338 85.0129 66.7973 85.0576 66.2848C85.1007 65.7908 85.2134 65.1871 85.5321 64.635C86.683 62.6409 87.196 60.6262 86.9429 58.0942L90.4294 57.7452C90.7588 61.0393 90.0662 63.7753 88.5841 66.3555C88.5784 66.3758 88.5606 66.4465 88.5481 66.5893C88.5279 66.822 88.532 67.1414 88.5675 67.5576C88.6399 68.4053 88.8146 69.3935 88.9958 70.5075C89.167 71.5601 89.3466 72.7413 89.355 73.7728C89.3593 74.2929 89.322 74.8587 89.1805 75.3969C89.0391 75.9348 88.7612 76.5647 88.1963 77.0541C87.6154 77.5573 86.9337 77.7158 86.3891 77.7509C85.8465 77.7859 85.301 77.7087 84.8181 77.6044C83.8597 77.3972 82.7845 76.9968 81.8419 76.6395C80.838 76.2589 79.957 75.9163 79.1999 75.7071C78.8278 75.6043 78.5519 75.5536 78.3599 75.5395C78.2938 75.5346 78.2507 75.5349 78.2265 75.536C75.3637 76.7858 72.1805 77.4818 68.8321 77.4818C56.5129 77.4818 46.3504 68.0335 46.3504 56.1679C46.3504 44.3022 56.5129 34.854 68.8321 34.854Z" fill="white"/>
<path d="M59.1971 54.1241C60.4871 54.1241 61.5328 55.1698 61.5328 56.4599C61.5328 57.7499 60.4871 58.7956 59.1971 58.7956C57.9071 58.7956 56.8613 57.7499 56.8613 56.4599C56.8613 55.1698 57.9071 54.1241 59.1971 54.1241Z" fill="white"/>
<path d="M68.5401 54.1241C69.8302 54.1241 70.8759 55.1698 70.8759 56.4599C70.8759 57.7499 69.8302 58.7956 68.5401 58.7956C67.2501 58.7956 66.2044 57.7499 66.2044 56.4599C66.2044 55.1698 67.2501 54.1241 68.5401 54.1241Z" fill="white"/>
<path d="M77.8832 54.1241C79.1732 54.1241 80.219 55.1698 80.219 56.4599C80.219 57.7499 79.1732 58.7956 77.8832 58.7956C76.5932 58.7956 75.5474 57.7499 75.5474 56.4599C75.5474 55.1698 76.5932 54.1241 77.8832 54.1241Z" fill="white"/>
<path d="M86.3504 31.9343C86.3504 31.9343 86.9143 37.1972 89.1104 39.3932C91.3066 41.5895 96.5693 42.1533 96.5693 42.1533C96.5693 42.1533 91.3066 42.7171 89.1104 44.9133C86.9142 47.1095 86.3504 52.3723 86.3504 52.3723C86.3504 52.3723 85.7865 47.1095 83.5903 44.9133C81.3942 42.7172 76.1314 42.1533 76.1314 42.1533C76.1314 42.1533 81.3941 41.5895 83.5903 39.3932C85.7865 37.197 86.3504 31.9343 86.3504 31.9343Z" fill="white"/>
</g>
</g>
<defs>
<filter id="filter0_d_0_11" x="0" y="0" width="140" height="140" filterUnits="userSpaceOnUse" color-interpolation-filters="sRGB">
<feFlood flood-opacity="0" result="BackgroundImageFix"/>
<feColorMatrix in="SourceAlpha" type="matrix" values="0 0 0 0 0 0 0 0 0 0 0 0 0 0 0 0 0 0 127 0" result="hardAlpha"/>
<feOffset dy="15"/>
<feGaussianBlur stdDeviation="15"/>
<feComposite in2="hardAlpha" operator="out"/>
<feColorMatrix type="matrix" values="0 0 0 0 0.846154 0 0 0 0 0.451282 0 0 0 0 0 0 0 0 0.3 0"/>
<feBlend mode="normal" in2="BackgroundImageFix" result="effect1_dropShadow_0_11"/>
<feBlend mode="normal" in="SourceGraphic" in2="effect1_dropShadow_0_11" result="shape"/>
</filter>
<linearGradient id="paint0_linear_0_11" x1="70" y1="15" x2="70" y2="95" gradientUnits="userSpaceOnUse">
<stop stop-color="#FDC203"/>
<stop offset="1" stop-color="#FFA300"/>
</linearGradient>
</defs>
</svg>
